<svg width="1593" height="974" viewBox="0 0 1593 974" fill="none" xmlns="http://www.w3.org/2000/svg">
<path d="M524.245 591.941H348.686L205.925 394.538L153.728 394.703L155.068 591.817H0V362.033C11.7591 332.763 25.7285 304.432 41.7871 277.284C61.8663 243.459 76.8329 225.721 95.0568 210.912C134.597 178.84 178.033 169.786 202.833 166.775C172.488 179.315 107.673 211.387 64.7112 282.028C52.1646 302.789 42.4577 325.139 35.8499 348.482C59.3347 349.332 82.8347 347.281 105.818 342.377C110.271 341.407 165.478 328.929 212.873 293.887C304.775 225.824 320.237 107.807 322.298 89.6986L314.712 87.9867C285.088 80.8092 160.283 57.544 67.8653 142.086C36.0695 171.548 12.6518 208.919 0 250.389L0 0H246.187C271.276 1.38188 336.214 8.45629 392.555 57.7503C410.49 73.4048 445.145 104.466 458.215 158.03C462.338 174.53 473.552 231.599 439.661 288.215C420.523 319.821 391.821 344.506 357.715 358.691C413.253 436.407 468.763 514.156 524.245 591.941Z" fill="#4285F4"/>
<path d="M561.328 159.102V592.786H676.918V159.102H561.328Z" fill="#4285F4"/>
<path d="M728.477 442.658H840.005V457.322C844.307 491.56 868.145 512.144 911.519 519.074C917.334 520.029 923.212 520.553 929.104 520.641C930.691 520.641 936.299 520.146 945.967 519.074C979.158 515.279 998.11 503.777 1002.82 484.568C1003.93 480.675 1004.52 476.652 1004.58 472.605C1004.58 461.88 998.11 452.2 985.177 443.565C979.323 439.784 969.455 436.064 955.574 432.407L874.412 411.431C787.141 388.977 743.505 348.841 743.505 291.022C743.872 276.108 746.046 261.295 749.978 246.905C759.118 210.44 781.849 183.379 818.173 165.724C847.722 151.218 883.331 143.965 925.002 143.965C976.856 143.965 1019.98 156.581 1054.36 181.812C1092.91 209.656 1112.19 248.486 1112.19 298.303H1002.82V286.917C1002.82 254.88 982.243 235.925 941.081 230.054C933.882 228.896 926.603 228.303 919.312 228.28C904.547 228.013 889.943 231.377 876.782 238.077C861.871 245.557 854.422 256.798 854.436 271.799C854.436 283.061 859.796 291.854 870.515 298.179L887.358 305.418L909.705 310.925L1001.24 335.82L1029.48 344.626C1091.53 363.959 1122.56 401.208 1122.58 456.373C1122.64 480.166 1116.84 503.607 1105.69 524.622C1076.17 580.296 1016.47 608.14 926.589 608.153C875.807 608.153 833.532 597.697 799.764 576.783C760.719 552.72 737.451 517.1 729.961 469.924L728.477 442.658Z" fill="#4285F4"/>
<path d="M1593 411.244H1280.92L1281.69 424.196C1289.67 475.553 1316.38 506.078 1361.82 515.772C1369.24 517.316 1376.79 518.104 1384.37 518.123C1416.48 518.123 1441.62 506.099 1459.8 482.05C1465.23 474.793 1469.27 466.599 1471.74 457.877H1588.89C1577.64 504.93 1552.76 541.856 1514.25 568.655C1477.96 594.395 1435.19 607.272 1385.94 607.285C1368.97 607.044 1352.06 605.402 1335.37 602.377C1280.7 593.37 1237.93 567.685 1207.06 525.321C1177.48 485.226 1162.7 436.812 1162.7 380.079C1162.7 309.871 1182.55 252.809 1222.27 208.891C1261.85 165.496 1316.36 143.791 1385.79 143.777C1452.17 143.777 1503.83 166.245 1540.76 211.18C1575.56 253.035 1592.95 307.768 1592.94 375.377L1593 411.244ZM1282.55 326.928H1475.14L1474.36 314.182C1473.75 302.402 1470.72 290.875 1465.45 280.32C1460.19 269.766 1452.81 260.412 1443.76 252.843C1425.31 237.475 1401.96 229.247 1377.96 229.66C1354.78 229.15 1332.33 237.781 1315.45 253.689C1298.37 270.295 1287.33 292.153 1284.12 315.77L1282.55 326.928Z" fill="#4285F4"/>
<path d="M619.137 129.196C654.796 129.196 683.704 100.274 683.704 64.5978C683.704 28.9214 654.796 0 619.137 0C583.478 0 554.57 28.9214 554.57 64.5978C554.57 100.274 583.478 129.196 619.137 129.196Z" fill="#4285F4"/>
<path d="M55.4568 760.365H69.6607C69.5689 765.828 68.3107 771.207 65.9706 776.143C63.8369 780.332 60.4788 783.77 56.3433 786.002C51.642 788.385 46.4176 789.548 41.1499 789.385C36.9241 789.477 32.7297 788.639 28.8632 786.93C25.3213 785.307 22.208 782.877 19.7719 779.835C17.1377 776.425 15.1849 772.538 14.0202 768.388C12.6707 763.401 12.0185 758.251 12.0824 753.084V737.946C12.0371 732.772 12.7313 727.619 14.1439 722.642C15.3411 718.481 17.3367 714.593 20.0193 711.195C22.4955 708.126 25.6691 705.693 29.2755 704.1C33.1781 702.414 37.3943 701.577 41.6446 701.645C46.8166 701.474 51.9449 702.646 56.5288 705.049C60.6206 707.325 63.916 710.802 65.9706 715.011C68.3124 720.038 69.6032 725.492 69.7638 731.036H55.5187C55.47 727.562 54.8787 724.118 53.7664 720.827C53.0286 718.51 51.4854 716.534 49.4166 715.258C47.0372 714.011 44.369 713.42 41.6859 713.546C39.2677 713.486 36.8706 714.01 34.6973 715.072C32.732 716.142 31.0934 717.724 29.9558 719.651C28.6153 722.001 27.6813 724.56 27.1934 727.221C26.5743 730.719 26.2844 734.269 26.3275 737.822V753.084C26.2937 756.537 26.5489 759.987 27.0903 763.397C27.4793 766.079 28.3082 768.678 29.5435 771.09C30.5771 773.061 32.1408 774.705 34.0582 775.834C36.2231 776.967 38.6465 777.515 41.088 777.422C43.8573 777.555 46.6172 777.01 49.128 775.834C51.2202 774.697 52.8148 772.823 53.6015 770.574C54.7463 767.288 55.3722 763.844 55.4568 760.365ZM245.797 738.544V753.084C245.902 758.438 245.207 763.777 243.736 768.925C242.556 773.094 240.52 776.972 237.757 780.31C235.213 783.289 231.998 785.622 228.377 787.116C220.522 790.141 211.824 790.141 203.969 787.116C200.345 785.595 197.116 783.267 194.527 780.31C191.717 776.972 189.613 773.099 188.343 768.925C186.86 763.779 186.165 758.438 186.281 753.084V738.544C186.163 733.129 186.858 727.727 188.343 722.518C189.542 718.294 191.598 714.362 194.383 710.968C196.948 707.939 200.18 705.546 203.825 703.976C211.637 700.875 220.338 700.875 228.151 703.976C231.805 705.53 235.04 707.925 237.592 710.968C240.369 714.368 242.424 718.298 243.633 722.518C245.141 727.724 245.871 733.124 245.797 738.544ZM231.676 753.084V738.379C231.74 734.638 231.381 730.901 230.604 727.241C230.114 724.527 229.099 721.934 227.615 719.61C226.415 717.721 224.717 716.201 222.708 715.217C220.625 714.238 218.351 713.731 216.049 713.731C213.748 713.731 211.474 714.238 209.391 715.217C207.388 716.218 205.687 717.734 204.464 719.61C202.983 721.943 201.949 724.53 201.413 727.241C200.698 730.909 200.366 734.642 200.423 738.379V753.043C200.367 756.749 200.72 760.449 201.474 764.078C202.015 766.748 203.05 769.295 204.526 771.585C205.789 773.418 207.509 774.889 209.514 775.855C211.582 776.83 213.846 777.317 216.132 777.278C218.438 777.319 220.722 776.832 222.811 775.855C224.795 774.907 226.479 773.429 227.676 771.585C229.147 769.299 230.162 766.75 230.666 764.078C231.391 760.459 231.73 756.774 231.676 753.084ZM423.768 702.821V788.23H409.812L379.672 729.097V788.23H365.901V702.821H379.672L410.039 762.345V702.821H423.768ZM582.258 766.161C582.284 764.581 582.09 763.005 581.681 761.479C581.328 760.053 580.619 758.74 579.619 757.663C578.358 756.332 576.898 755.205 575.29 754.322C573 753.016 570.608 751.898 568.137 750.981C564.913 749.748 561.761 748.336 558.695 746.753C555.943 745.285 553.364 743.514 551.006 741.472C548.846 739.502 547.095 737.126 545.852 734.481C544.542 731.573 543.901 728.408 543.976 725.22C543.94 721.961 544.557 718.728 545.79 715.712C547.004 712.885 548.802 710.347 551.067 708.266C553.465 706.111 556.268 704.456 559.313 703.399C562.679 702.195 566.233 701.601 569.807 701.645C574.752 701.503 579.642 702.716 583.949 705.152C587.781 707.396 590.908 710.668 592.978 714.598C595.11 718.646 596.201 723.161 596.153 727.736H581.949C581.99 725.216 581.557 722.712 580.671 720.352C579.879 718.302 578.485 716.54 576.671 715.299C574.58 714.016 572.155 713.385 569.704 713.484C567.435 713.401 565.185 713.928 563.189 715.011C561.555 715.98 560.249 717.417 559.437 719.136C558.623 721.044 558.223 723.104 558.262 725.179C558.241 726.67 558.588 728.143 559.272 729.469C559.996 730.791 560.969 731.961 562.138 732.913C563.546 734.085 565.081 735.095 566.714 735.924C568.717 736.949 570.782 737.845 572.899 738.606C576.527 739.882 580.026 741.498 583.351 743.432C586.089 745.004 588.559 747.002 590.669 749.351C592.604 751.469 594.084 753.961 595.019 756.673C596.034 759.682 596.529 762.841 596.483 766.016C596.522 769.311 595.898 772.579 594.648 775.628C593.519 778.434 591.755 780.941 589.494 782.95C587.088 785.068 584.285 786.688 581.248 787.714C577.768 788.847 574.125 789.397 570.466 789.343C566.864 789.359 563.281 788.81 559.849 787.714C556.545 786.651 553.478 784.956 550.82 782.723C548.113 780.389 545.952 777.488 544.491 774.225C542.89 770.438 542.11 766.353 542.203 762.242H556.448C556.396 764.631 556.731 767.013 557.437 769.296C558.022 771.078 559.01 772.702 560.324 774.04C561.609 775.264 563.152 776.187 564.838 776.741C566.736 777.315 568.711 777.594 570.693 777.566C572.948 777.653 575.188 777.171 577.207 776.164C578.879 775.222 580.212 773.779 581.021 772.039C581.856 770.193 582.278 768.187 582.258 766.161ZM754.065 702.821H768.311V762.118C768.573 767.619 767.295 773.083 764.62 777.896C762.332 781.764 758.895 784.821 754.787 786.641C750.456 788.518 745.776 789.453 741.057 789.385C736.243 789.473 731.465 788.538 727.039 786.641C722.97 784.827 719.584 781.764 717.37 777.896C714.818 773.043 713.602 767.597 713.845 762.118V702.821H728.049V762.118C727.9 765.337 728.412 768.552 729.554 771.565C730.437 773.601 732.026 775.249 734.027 776.205C736.258 777.109 738.651 777.545 741.057 777.484C743.443 777.547 745.817 777.111 748.025 776.205C750.044 775.273 751.64 773.617 752.499 771.565C753.687 768.563 754.221 765.343 754.065 762.118V702.821ZM934.675 776.308V788.23H899.197V776.308H934.675ZM902.949 702.821V788.23H888.703V702.821H902.949ZM1068.78 702.821V788.23H1054.59V702.821H1068.78ZM1090.55 702.821V714.784H1033.07V702.821H1090.55ZM1222.3 702.821V788.23H1208.05V702.821H1222.3ZM1402.31 702.821V788.23H1388.35L1358.22 729.097V788.23H1344.44V702.821H1358.22L1388.6 762.345V702.821H1402.31ZM1579.99 744.401V778.082C1578.53 779.76 1576.92 781.306 1575.19 782.702C1572.61 784.734 1569.71 786.323 1566.61 787.405C1562.28 788.876 1557.71 789.574 1553.13 789.467C1548.84 789.529 1544.58 788.774 1540.58 787.24C1536.87 785.783 1533.56 783.473 1530.91 780.495C1528.07 777.222 1525.97 773.383 1524.72 769.234C1523.18 764.022 1522.44 758.603 1522.54 753.167V737.966C1522.46 732.588 1523.11 727.224 1524.48 722.023C1525.61 717.886 1527.59 714.03 1530.29 710.7C1532.75 707.703 1535.94 705.382 1539.55 703.955C1543.55 702.403 1547.81 701.646 1552.1 701.728C1557.27 701.548 1562.4 702.631 1567.05 704.884C1571.03 706.917 1574.26 710.168 1576.26 714.165C1578.56 718.805 1579.84 723.882 1580.01 729.056H1566.12C1565.95 726.043 1565.25 723.084 1564.06 720.311C1563.18 718.199 1561.64 716.432 1559.67 715.279C1557.4 714.107 1554.88 713.539 1552.33 713.629C1549.91 713.569 1547.51 714.048 1545.3 715.031C1543.31 716.012 1541.64 717.544 1540.5 719.445C1539.11 721.75 1538.17 724.298 1537.73 726.952C1537.11 730.555 1536.82 734.207 1536.87 737.863V753.167C1536.81 756.896 1537.18 760.62 1537.98 764.263C1538.56 766.98 1539.66 769.562 1541.2 771.874C1542.57 773.765 1544.41 775.265 1546.54 776.226C1548.83 777.149 1551.28 777.605 1553.75 777.566C1555.89 777.642 1558.03 777.363 1560.08 776.741C1561.38 776.337 1562.6 775.724 1563.71 774.926C1564.61 774.225 1565.34 773.668 1565.89 773.297V755.683H1552.1V744.484L1579.99 744.401Z" fill="white"/>
<path d="M57.7204 934.503C57.7543 932.71 57.4824 930.925 56.9164 929.223C56.3524 927.67 55.4512 926.261 54.2777 925.098C52.8001 923.676 51.11 922.493 49.2682 921.592C46.7372 920.333 44.1193 919.258 41.4344 918.374C38.6086 917.437 35.8529 916.299 33.1883 914.971C30.8763 913.841 28.7267 912.405 26.7976 910.702C25.0727 909.137 23.7081 907.215 22.7982 905.071C21.8287 902.682 21.3586 900.12 21.417 897.543C21.3897 894.909 21.9019 892.298 22.9219 889.87C23.8965 887.592 25.3523 885.552 27.1893 883.889C29.0957 882.195 31.316 880.891 33.7243 880.053C36.3728 879.122 39.1634 878.661 41.9704 878.691C45.9107 878.583 49.8006 879.599 53.1851 881.62C56.2919 883.514 58.8114 886.235 60.4622 889.478C62.1882 892.876 63.0654 896.64 63.0185 900.451H57.3906C57.4516 897.534 56.8451 894.641 55.6177 891.995C54.4918 889.583 52.6769 887.559 50.402 886.178C47.867 884.722 44.974 884.008 42.0528 884.116C39.1942 884.005 36.355 884.63 33.8068 885.931C31.7315 887.016 30.0135 888.678 28.8591 890.716C27.9377 892.47 27.3871 894.396 27.2417 896.372C27.0963 898.348 27.3591 900.334 28.0139 902.204C28.5817 903.765 29.4983 905.176 30.6939 906.329C32.1704 907.723 33.8446 908.89 35.6621 909.794C38.1113 911.004 40.6641 911.991 43.2898 912.744C46.2832 913.692 49.1987 914.871 52.01 916.27C54.3468 917.431 56.4889 918.948 58.3595 920.767C60.0502 922.452 61.3765 924.467 62.2558 926.686C63.1399 929.13 63.5594 931.719 63.4927 934.317C63.5398 937.07 63.0133 939.803 61.9465 942.341C60.9503 944.639 59.4578 946.689 57.5761 948.342C55.6143 950.032 53.337 951.315 50.8762 952.117C48.1412 953.008 45.2794 953.447 42.4033 953.416C39.6396 953.408 36.8935 952.977 34.2603 952.138C31.5747 951.295 29.0663 949.967 26.8594 948.219C24.5825 946.397 22.7555 944.075 21.5201 941.433C20.0886 938.34 19.3834 934.961 19.4586 931.554H25.2102C25.1294 934.212 25.6436 936.854 26.7151 939.288C27.6325 941.269 28.994 943.013 30.6939 944.382C32.3217 945.678 34.1937 946.632 36.1981 947.187C38.208 947.771 40.2898 948.07 42.3827 948.074C45.1888 948.145 47.9719 947.552 50.5051 946.342C52.6766 945.283 54.5109 943.64 55.8032 941.598C57.0955 939.46 57.76 937.001 57.7204 934.503Z" fill="#74797A"/>
<path d="M118.846 929.902L121.547 929.799C121.575 932.969 121.236 936.132 120.537 939.224C119.987 941.876 118.96 944.406 117.506 946.691C116.109 948.789 114.21 950.505 111.981 951.682C109.421 952.948 106.589 953.564 103.735 953.476C101.617 953.511 99.5138 953.118 97.5507 952.321C95.7229 951.532 94.1161 950.307 92.871 948.753C91.4458 946.919 90.4078 944.814 89.82 942.566C89.0516 939.484 88.6912 936.315 88.748 933.14V898.49H94.2935V933.243C94.2429 935.661 94.5133 938.074 95.0975 940.421C95.5001 942.103 96.2594 943.678 97.3239 945.041C98.1798 946.109 99.2839 946.952 100.54 947.495C101.763 947.999 103.072 948.258 104.395 948.258C107.467 948.43 110.504 947.534 112.991 945.721C115.152 943.964 116.727 941.59 117.506 938.915C118.427 936.001 118.879 932.958 118.846 929.902ZM117.836 939.988V898.387H123.382V952.486H118.042L117.836 939.988Z" fill="#74797A"/>
<path d="M178.981 939.207C179.006 937.748 178.605 936.315 177.827 935.082C176.823 933.612 175.524 932.369 174.013 931.431C171.694 929.941 169.261 928.637 166.736 927.533C164.303 926.419 162.118 925.367 160.201 924.336C158.456 923.419 156.817 922.312 155.315 921.036C154.045 919.924 153.008 918.571 152.264 917.055C151.519 915.397 151.152 913.593 151.192 911.775C151.159 909.84 151.537 907.921 152.301 906.143C153.065 904.365 154.198 902.77 155.624 901.463C157.136 900.141 158.895 899.131 160.798 898.493C162.944 897.74 165.204 897.37 167.478 897.4C170.619 897.327 173.728 898.036 176.528 899.462C178.936 900.747 180.941 902.674 182.321 905.031C183.729 907.548 184.441 910.396 184.382 913.281H178.692C178.703 911.461 178.242 909.67 177.352 908.083C176.466 906.456 175.146 905.107 173.539 904.185C171.657 903.119 169.515 902.597 167.354 902.68C165.213 902.581 163.083 903.035 161.169 904C159.709 904.764 158.505 905.94 157.706 907.382C157.03 908.696 156.677 910.153 156.675 911.631C156.658 912.633 156.841 913.629 157.211 914.56C157.625 915.497 158.237 916.335 159.005 917.014C160.106 917.973 161.317 918.797 162.613 919.468C164.159 920.314 166.076 921.325 168.385 922.48C171.334 923.735 174.205 925.167 176.981 926.77C179.173 927.989 181.067 929.679 182.527 931.72C183.89 933.835 184.567 936.32 184.465 938.835C184.497 940.925 184.09 942.998 183.269 944.92C182.491 946.699 181.33 948.284 179.867 949.56C178.312 950.894 176.503 951.897 174.549 952.51C172.309 953.218 169.971 953.566 167.622 953.541C164.218 953.643 160.843 952.884 157.809 951.334C155.307 950.06 153.21 948.113 151.753 945.712C150.296 943.311 149.538 940.551 149.563 937.742H155.109C155.05 940.09 155.775 942.391 157.17 944.28C158.386 945.788 160.033 946.889 161.891 947.436C163.7 947.998 165.583 948.284 167.478 948.282C169.602 948.343 171.714 947.935 173.662 947.085C175.229 946.392 176.555 945.251 177.476 943.806C178.417 942.453 178.94 940.854 178.981 939.207Z" fill="#74797A"/>
<path d="M228.933 898.39V903.382H205.844V898.37L228.933 898.39ZM214.131 884.551H219.738V939.249C219.644 941.18 219.917 943.112 220.542 944.941C220.896 946.011 221.629 946.914 222.604 947.478C223.494 947.896 224.466 948.107 225.449 948.097C226.139 948.098 226.828 948.05 227.51 947.952C228.126 947.87 228.733 947.732 229.324 947.54L229.531 952.655C228.754 952.93 227.954 953.13 227.139 953.253C226.11 953.42 225.069 953.503 224.026 953.5C222.242 953.522 220.484 953.066 218.934 952.181C217.301 951.133 216.049 949.585 215.368 947.767C214.364 945.058 213.908 942.176 214.028 939.29L214.131 884.551Z" fill="#74797A"/>
<path d="M283.522 920.889L283.625 925.654H273.977C271.687 925.612 269.404 925.897 267.194 926.499C265.401 926.97 263.724 927.805 262.267 928.954C260.988 929.962 259.969 931.264 259.299 932.749C258.597 934.339 258.252 936.064 258.289 937.802C258.211 939.811 258.606 941.811 259.443 943.639C260.166 945.106 261.365 946.284 262.845 946.98C264.51 947.724 266.319 948.09 268.143 948.053C270.644 948.097 273.119 947.539 275.358 946.423C277.38 945.385 279.136 943.896 280.491 942.071C281.767 940.358 282.653 938.387 283.089 936.296L284.573 939.699C284.189 941.333 283.571 942.903 282.738 944.361C281.797 946.03 280.616 947.552 279.234 948.878C277.746 950.288 276.023 951.426 274.142 952.239C272.057 953.128 269.81 953.571 267.545 953.539C264.836 953.607 262.15 953.028 259.711 951.848C257.501 950.712 255.704 948.908 254.578 946.691C253.281 944.052 252.651 941.134 252.743 938.194C252.72 935.836 253.154 933.497 254.021 931.305C254.866 929.207 256.169 927.326 257.835 925.798C259.687 924.142 261.874 922.904 264.246 922.168C267.142 921.269 270.162 920.838 273.194 920.889H283.522ZM282.429 942.793V913.341C282.521 911.202 282.074 909.074 281.13 907.153C280.297 905.595 278.96 904.366 277.337 903.667C275.371 902.888 273.267 902.516 271.153 902.574C269.05 902.532 266.969 903.007 265.092 903.956C263.384 904.802 261.953 906.119 260.969 907.751C259.955 909.429 259.44 911.36 259.484 913.32H253.939C253.928 911.243 254.348 909.187 255.171 907.281C255.994 905.375 257.203 903.66 258.722 902.244C260.323 900.719 262.207 899.521 264.267 898.717C266.546 897.827 268.975 897.385 271.421 897.418C274.36 897.363 277.281 897.889 280.017 898.965C282.486 899.963 284.553 901.756 285.892 904.059C287.413 906.951 288.126 910.201 287.954 913.464V941.123C287.954 943.075 288.085 945.025 288.346 946.959C288.512 948.606 288.851 950.231 289.356 951.806V952.508H283.522C283.086 951.043 282.809 949.535 282.697 948.011C282.52 946.278 282.431 944.536 282.429 942.793Z" fill="#74797A"/>
<path d="M316.527 882.753C316.489 881.689 316.841 880.648 317.516 879.824C317.861 879.453 318.279 879.158 318.744 878.955C319.209 878.753 319.71 878.648 320.217 878.648C320.723 878.648 321.225 878.753 321.689 878.955C322.154 879.158 322.572 879.453 322.917 879.824C323.577 880.655 323.92 881.693 323.886 882.753C323.917 883.788 323.573 884.799 322.917 885.599C322.569 885.965 322.15 886.256 321.686 886.455C321.221 886.654 320.722 886.757 320.217 886.757C319.712 886.757 319.212 886.654 318.748 886.455C318.284 886.256 317.865 885.965 317.516 885.599C316.839 884.81 316.486 883.793 316.527 882.753ZM322.938 898.346V952.445H317.475V898.387L322.938 898.346Z" fill="#74797A"/>
<path d="M357.694 909.937V952.486H352.148V898.387H357.488L357.694 909.937ZM356.436 922.085L353.983 920.641C354.096 917.585 354.63 914.559 355.571 911.648C356.407 908.981 357.682 906.472 359.343 904.223C360.841 902.158 362.768 900.441 364.992 899.191C367.196 897.984 369.674 897.366 372.186 897.397C374.258 897.364 376.317 897.735 378.247 898.49C380.033 899.234 381.6 900.419 382.803 901.934C384.185 903.771 385.162 905.88 385.669 908.122C386.4 911.111 386.739 914.182 386.679 917.259V952.548H381.133V917.197C381.244 914.243 380.818 911.294 379.876 908.493C379.242 906.632 377.981 905.05 376.309 904.017C374.595 903.094 372.668 902.639 370.723 902.697C368.558 902.664 366.437 903.313 364.662 904.553C362.865 905.825 361.349 907.454 360.209 909.338C358.993 911.307 358.062 913.439 357.447 915.67C356.837 917.756 356.497 919.912 356.436 922.085Z" fill="#74797A"/>
<path d="M443.866 920.889L443.969 925.654H434.321C432.025 925.613 429.734 925.898 427.518 926.499C425.73 926.97 424.06 927.805 422.611 928.954C421.329 929.964 420.304 931.265 419.622 932.749C418.937 934.344 418.6 936.066 418.633 937.802C418.555 939.811 418.95 941.811 419.787 943.639C420.51 945.106 421.709 946.284 423.189 946.98C424.848 947.721 426.649 948.087 428.466 948.053C430.974 948.099 433.456 947.54 435.702 946.423C437.721 945.39 439.472 943.9 440.815 942.071C442.106 940.368 442.994 938.393 443.412 936.296L444.917 939.699C444.534 941.337 443.909 942.908 443.062 944.361C442.135 946.034 440.96 947.556 439.578 948.878C438.086 950.293 436.355 951.431 434.465 952.239C432.381 953.13 430.134 953.573 427.868 953.539C425.166 953.607 422.487 953.027 420.055 951.848C417.838 950.713 416.035 948.909 414.901 946.691C413.803 944.289 413.19 941.692 413.098 939.052C413.006 936.411 413.437 933.778 414.365 931.305C415.209 929.207 416.513 927.326 418.179 925.798C420.027 924.147 422.205 922.909 424.57 922.168C427.466 921.272 430.486 920.841 433.517 920.889H443.866ZM442.67 942.793V913.341C442.761 911.202 442.315 909.074 441.371 907.153C440.538 905.595 439.201 904.366 437.578 903.667C435.612 902.888 433.508 902.516 431.393 902.574C429.291 902.532 427.21 903.007 425.333 903.956C423.631 904.811 422.202 906.125 421.209 907.751C420.216 909.436 419.71 911.364 419.746 913.32H414.2C414.195 911.258 414.609 909.216 415.417 907.318C416.248 905.407 417.453 903.681 418.962 902.244C420.568 900.724 422.45 899.526 424.508 898.717C426.794 897.829 429.23 897.387 431.682 897.418C434.621 897.363 437.543 897.889 440.279 898.965C442.741 899.975 444.804 901.765 446.154 904.059C447.675 906.951 448.387 910.201 448.215 913.464V941.123C448.219 943.074 448.343 945.023 448.587 946.959C448.759 948.607 449.104 950.232 449.617 951.806V952.508H443.763C443.347 951.038 443.07 949.533 442.938 948.011C442.76 946.278 442.671 944.536 442.67 942.793Z" fill="#74797A"/>
<path d="M477.078 875.699H482.624V941.988L482.273 952.487H477.078V875.699ZM514.062 922.951V928.005C514.116 931.818 513.729 935.624 512.907 939.348C512.297 942.19 511.142 944.887 509.506 947.289C508.121 949.302 506.239 950.922 504.043 951.992C501.731 953.057 499.208 953.586 496.663 953.538C494.221 953.594 491.797 953.101 489.571 952.095C487.558 951.127 485.789 949.717 484.397 947.97C482.917 946.117 481.767 944.024 480.995 941.782C480.116 939.229 479.522 936.587 479.222 933.903V917.816C479.574 914.975 480.21 912.177 481.119 909.463C481.899 907.13 483.07 904.947 484.582 903.007C485.947 901.266 487.688 899.855 489.674 898.882C491.827 897.876 494.184 897.381 496.56 897.438C499.121 897.386 501.665 897.878 504.022 898.882C506.213 899.873 508.104 901.424 509.506 903.378C511.164 905.768 512.321 908.469 512.907 911.319C513.732 915.14 514.119 919.043 514.062 922.951ZM508.454 928.005V922.951C508.499 919.931 508.257 916.913 507.733 913.938C507.369 911.717 506.593 909.583 505.445 907.648C504.448 906.04 503.019 904.747 501.322 903.914C499.454 903.059 497.417 902.643 495.364 902.698C493.31 902.634 491.272 903.073 489.427 903.976C487.814 904.768 486.404 905.918 485.304 907.338C484.232 908.734 483.364 910.276 482.727 911.917C482.088 913.494 481.612 915.132 481.304 916.805V935.368C481.781 937.54 482.587 939.627 483.696 941.555C484.811 943.505 486.39 945.148 488.293 946.34C490.255 947.429 492.442 948.051 494.684 948.159C496.925 948.266 499.161 947.856 501.219 946.959C502.871 946.101 504.26 944.811 505.239 943.226C506.399 941.327 507.196 939.229 507.589 937.038C508.167 934.062 508.457 931.037 508.454 928.005Z" fill="#74797A"/>
<path d="M546.756 875.699V952.487H541.211V875.699H546.756Z" fill="#74797A"/>
<path d="M593.825 953.54C591.01 953.564 588.214 953.067 585.579 952.075C583.094 951.103 580.87 949.563 579.085 947.579C577.16 945.35 575.721 942.744 574.859 939.927C573.805 936.382 573.304 932.694 573.375 928.996V922.808C573.296 918.892 573.831 914.988 574.962 911.238C575.868 908.356 577.34 905.684 579.291 903.379C580.979 901.424 583.096 899.885 585.476 898.883C590.367 896.971 595.799 896.971 600.69 898.883C602.929 899.84 604.882 901.361 606.359 903.297C608.006 905.508 609.179 908.036 609.802 910.722C610.634 914.179 611.021 917.727 610.956 921.282V925.943H576.673V920.684H605.411V919.343C605.424 916.272 604.929 913.219 603.947 910.309C603.169 908.044 601.734 906.062 599.824 904.617C597.787 903.207 595.353 902.484 592.877 902.554C590.935 902.532 589.011 902.918 587.228 903.689C585.462 904.456 583.922 905.663 582.755 907.195C581.387 909.037 580.418 911.145 579.91 913.383C579.197 916.43 578.865 919.555 578.92 922.684V928.872C578.874 931.761 579.235 934.643 579.992 937.431C580.605 939.611 581.65 941.645 583.064 943.413C584.351 944.98 586 946.212 587.867 947.002C589.83 947.801 591.933 948.201 594.052 948.177C596.565 948.226 599.059 947.741 601.37 946.754C603.553 945.76 605.478 944.278 606.998 942.423L609.884 946.115C608.853 947.484 607.639 948.705 606.277 949.745C604.689 950.929 602.911 951.836 601.02 952.426C598.694 953.168 596.267 953.544 593.825 953.54Z" fill="#74797A"/>
<path d="M680.303 879.702V952.488H674.531V879.702H680.303ZM691.25 952.488H677.603V947.147H691.188C695.087 947.268 698.944 946.319 702.341 944.403C705.461 942.513 707.912 939.693 709.35 936.339C711.087 932.248 711.917 927.829 711.783 923.386V908.639C711.843 905.186 711.377 901.743 710.402 898.43C709.614 895.704 708.25 893.178 706.402 891.026C704.672 889.04 702.486 887.504 700.032 886.55C697.346 885.507 694.482 884.995 691.601 885.044H677.294V879.702H691.601C695.202 879.648 698.779 880.292 702.135 881.6C705.27 882.817 708.089 884.728 710.381 887.189C712.755 889.824 714.546 892.931 715.638 896.306C716.934 900.3 717.561 904.482 717.493 908.681V923.325C717.566 927.558 716.939 931.774 715.638 935.803C714.55 939.194 712.743 942.311 710.34 944.94C708.051 947.405 705.231 949.316 702.094 950.529C698.624 951.872 694.929 952.537 691.209 952.488H691.25Z" fill="#74797A"/>
<path d="M745.114 882.753C745.07 881.692 745.415 880.65 746.082 879.824C746.428 879.453 746.846 879.158 747.31 878.955C747.775 878.753 748.276 878.648 748.783 878.648C749.29 878.648 749.791 878.753 750.256 878.955C750.72 879.158 751.138 879.453 751.484 879.824C752.143 880.655 752.487 881.693 752.453 882.753C752.483 883.788 752.139 884.799 751.484 885.599C751.135 885.965 750.716 886.256 750.252 886.455C749.788 886.654 749.288 886.757 748.783 886.757C748.278 886.757 747.778 886.654 747.314 886.455C746.85 886.256 746.431 885.965 746.082 885.599C745.413 884.806 745.067 883.79 745.114 882.753ZM751.504 898.346V952.445H745.959V898.387L751.504 898.346Z" fill="#74797A"/>
<path d="M778.722 928.008V922.955C778.652 919.03 779.054 915.11 779.917 911.281C780.528 908.441 781.706 905.755 783.381 903.382C784.818 901.428 786.735 899.88 788.947 898.885C791.278 897.89 793.793 897.398 796.327 897.442C798.709 897.387 801.072 897.881 803.233 898.885C805.217 899.854 806.952 901.265 808.304 903.01C809.781 904.963 810.93 907.144 811.706 909.466C812.625 912.177 813.26 914.977 813.603 917.819V933.969C813.313 936.654 812.718 939.297 811.83 941.847C811.066 944.089 809.922 946.182 808.449 948.035C807.052 949.778 805.284 951.187 803.274 952.16C801.061 953.162 798.652 953.655 796.224 953.604C793.706 953.643 791.212 953.114 788.926 952.057C786.709 950.985 784.801 949.367 783.381 947.354C781.709 944.96 780.519 942.263 779.876 939.414C779.028 935.673 778.64 931.843 778.722 928.008ZM810.51 898.39H815.643V953.851C815.792 957.787 815.03 961.705 813.417 965.298C812.112 968.097 809.944 970.403 807.232 971.878C804.249 973.326 800.961 974.034 797.646 973.94C795.727 973.92 793.819 973.636 791.977 973.094C789.974 972.511 788.06 971.658 786.287 970.558C784.544 969.462 783.008 968.065 781.752 966.433L784.35 962.431C786.031 964.393 788.093 965.993 790.41 967.134C792.541 968.151 794.873 968.68 797.234 968.681C799.672 968.761 802.094 968.267 804.305 967.237C806.272 966.22 807.824 964.55 808.696 962.514C809.786 959.775 810.291 956.838 810.18 953.893V910.291L810.51 898.39ZM784.308 922.955V928.008C784.27 931.017 784.533 934.023 785.092 936.98C785.5 939.169 786.303 941.266 787.462 943.167C788.469 944.766 789.895 946.058 791.586 946.901C794.613 948.441 798.118 948.754 801.37 947.775C804.623 946.795 807.372 944.598 809.047 941.641C810.199 939.635 811.04 937.465 811.541 935.206V916.644C811.198 914.977 810.715 913.342 810.098 911.755C809.46 910.115 808.593 908.573 807.521 907.177C806.414 905.762 805.006 904.614 803.398 903.815C801.554 902.907 799.515 902.468 797.461 902.536C795.435 902.488 793.425 902.904 791.586 903.753C789.899 904.601 788.474 905.891 787.462 907.486C786.296 909.386 785.486 911.483 785.071 913.674C784.501 916.733 784.245 919.843 784.308 922.955Z" fill="#74797A"/>
<path d="M844.01 882.753C843.976 881.693 844.319 880.655 844.979 879.824C845.313 879.433 845.731 879.124 846.203 878.92C846.675 878.716 847.187 878.623 847.7 878.649C848.207 878.627 848.712 878.721 849.177 878.925C849.641 879.129 850.053 879.436 850.38 879.824C851.07 880.641 851.437 881.683 851.411 882.753C851.457 883.79 851.111 884.806 850.442 885.599C850.111 885.981 849.698 886.283 849.234 886.483C848.77 886.683 848.267 886.776 847.762 886.754C847.251 886.777 846.741 886.686 846.27 886.486C845.799 886.286 845.379 885.983 845.041 885.599C844.363 884.807 843.997 883.796 844.01 882.753ZM850.401 898.346V952.445H844.855V898.387L850.401 898.346Z" fill="#74797A"/>
<path d="M897.154 898.39V903.382H874.086V898.37L897.154 898.39ZM882.332 884.551H887.939V939.249C887.845 941.18 888.118 943.112 888.743 944.941C889.102 946.008 889.834 946.909 890.805 947.478C891.702 947.894 892.681 948.105 893.67 948.097C894.36 948.098 895.049 948.05 895.732 947.952C896.348 947.87 896.955 947.732 897.546 947.54L897.752 952.655C896.976 952.93 896.175 953.13 895.361 953.253C894.332 953.42 893.291 953.503 892.248 953.5C890.463 953.522 888.705 953.066 887.156 952.181C885.522 951.133 884.271 949.585 883.59 947.767C882.585 945.058 882.13 942.176 882.25 939.29L882.332 884.551Z" fill="#74797A"/>
<path d="M951.746 920.889L951.849 925.654H942.119C939.829 925.612 937.546 925.897 935.336 926.499C933.543 926.97 931.866 927.805 930.409 928.954C929.13 929.962 928.111 931.264 927.441 932.749C926.739 934.339 926.394 936.064 926.431 937.802C926.353 939.811 926.748 941.811 927.585 943.639C928.308 945.106 929.507 946.284 930.987 946.98C932.652 947.724 934.461 948.09 936.285 948.053C938.786 948.097 941.261 947.539 943.5 946.423C945.455 945.409 947.161 943.975 948.498 942.225C949.834 940.474 950.767 938.45 951.231 936.296L952.715 939.699C952.33 941.333 951.712 942.903 950.88 944.361C949.939 946.03 948.758 947.552 947.376 948.878C945.888 950.288 944.165 951.426 942.284 952.239C940.199 953.126 937.952 953.569 935.687 953.539C932.978 953.607 930.292 953.028 927.853 951.848C925.636 950.713 923.833 948.909 922.699 946.691C921.409 944.05 920.787 941.132 920.885 938.194C920.861 935.836 921.296 933.497 922.163 931.305C923.007 929.207 924.311 927.326 925.977 925.798C927.829 924.142 930.016 922.904 932.388 922.168C935.277 921.271 938.29 920.839 941.315 920.889H951.746ZM950.55 942.793V913.341C950.642 911.202 950.195 909.074 949.252 907.153C948.419 905.595 947.081 904.366 945.458 903.667C943.492 902.888 941.388 902.516 939.274 902.574C937.171 902.532 935.09 903.007 933.213 903.956C931.511 904.811 930.083 906.125 929.09 907.751C928.097 909.436 927.59 911.364 927.626 913.32H922.081C922.076 911.258 922.489 909.216 923.297 907.318C924.128 905.407 925.334 903.681 926.843 902.244C928.456 900.723 930.345 899.526 932.409 898.717C934.687 897.827 937.117 897.385 939.563 897.418C942.502 897.363 945.423 897.889 948.159 898.965C950.625 899.969 952.691 901.76 954.034 904.059C955.555 906.951 956.268 910.201 956.096 913.464V941.123C956.099 943.074 956.223 945.023 956.467 946.959C956.649 948.605 956.994 950.229 957.498 951.806V952.508H951.643C951.227 951.038 950.951 949.533 950.818 948.011C950.653 946.155 950.55 944.423 950.55 942.793Z" fill="#74797A"/>
<path d="M991.163 875.699V952.487H985.617V875.699H991.163Z" fill="#74797A"/>
<path d="M1064.05 879.703V952.489H1058.32V879.703H1064.05ZM1096.19 879.703V885.045H1062.46V879.703H1096.19ZM1092.19 912.25V917.653H1062.46V912.25H1092.19ZM1096.44 947.147V952.489H1062.46V947.147H1096.44Z" fill="#74797A"/>
<path d="M1124.41 898.387L1136.21 920.146L1148.1 898.387H1154.6L1139.34 924.952L1155.23 952.486H1148.74L1136.25 929.696L1123.88 952.486H1117.34L1133.28 924.952L1117.98 898.387H1124.41Z" fill="#74797A"/>
<path d="M1195.49 948.301C1197.49 948.311 1199.47 947.918 1201.31 947.146C1203.17 946.348 1204.73 944.984 1205.78 943.248C1207.1 940.951 1207.81 938.351 1207.84 935.699H1213.14C1213.14 939.14 1212.23 942.52 1210.5 945.496C1208.96 948.031 1206.77 950.105 1204.15 951.498C1201.5 952.88 1198.55 953.588 1195.56 953.56C1192.65 953.619 1189.75 953.079 1187.06 951.972C1184.62 950.937 1182.49 949.289 1180.88 947.187C1179.13 944.849 1177.88 942.183 1177.19 939.35C1176.29 935.811 1175.87 932.171 1175.93 928.522V922.334C1175.86 918.729 1176.26 915.13 1177.13 911.63C1177.82 908.81 1179.08 906.159 1180.82 903.833C1182.44 901.744 1184.57 900.104 1187 899.069C1189.69 897.963 1192.58 897.422 1195.49 897.481C1198.57 897.425 1201.61 898.134 1204.34 899.543C1206.98 901.001 1209.13 903.203 1210.52 905.875C1212.2 909.244 1213.06 912.96 1213.04 916.724H1207.74C1207.74 913.901 1207.1 911.115 1205.86 908.577C1204.9 906.667 1203.37 905.098 1201.49 904.081C1199.62 903.132 1197.55 902.65 1195.45 902.678C1193.2 902.608 1190.96 903.06 1188.92 903.998C1187.16 904.868 1185.67 906.201 1184.61 907.855C1183.42 909.749 1182.61 911.847 1182.2 914.043C1181.67 916.803 1181.42 919.608 1181.45 922.417V928.604C1181.42 931.427 1181.67 934.245 1182.2 937.019C1182.62 939.215 1183.44 941.314 1184.63 943.207C1185.69 944.867 1187.19 946.202 1188.96 947.064C1191.01 947.974 1193.25 948.398 1195.49 948.301Z" fill="#74797A"/>
<path d="M1256.44 953.54C1253.62 953.564 1250.83 953.068 1248.19 952.075C1245.71 951.103 1243.48 949.563 1241.7 947.579C1239.8 945.346 1238.4 942.739 1237.58 939.927C1236.5 936.385 1236 932.696 1236.07 928.996V922.808C1235.99 918.89 1236.53 914.984 1237.68 911.238C1238.53 908.363 1239.95 905.69 1241.86 903.379C1243.56 901.428 1245.67 899.89 1248.05 898.883C1252.94 896.971 1258.37 896.971 1263.26 898.883C1265.51 899.839 1267.47 901.36 1268.95 903.297C1270.6 905.508 1271.77 908.036 1272.39 910.722C1273.22 914.18 1273.6 917.728 1273.55 921.282V925.943H1239.31V920.684H1268.02V919.343C1268.04 916.272 1267.54 913.219 1266.56 910.309C1265.8 908.036 1264.36 906.05 1262.44 904.617C1260.4 903.204 1257.97 902.481 1255.49 902.554C1253.55 902.532 1251.62 902.918 1249.84 903.689C1248.08 904.462 1246.54 905.668 1245.37 907.195C1244.01 909.043 1243.04 911.148 1242.52 913.383C1241.82 916.431 1241.49 919.556 1241.55 922.684V928.872C1241.5 931.762 1241.86 934.645 1242.63 937.431C1243.23 939.615 1244.27 941.651 1245.7 943.413C1246.98 944.985 1248.63 946.217 1250.5 947.002C1252.46 947.806 1254.57 948.206 1256.69 948.177C1259.2 948.228 1261.69 947.743 1264 946.754C1266.19 945.76 1268.11 944.278 1269.63 942.423L1272.54 946.115C1271.5 947.484 1270.28 948.705 1268.91 949.745C1267.33 950.937 1265.55 951.845 1263.65 952.426C1261.32 953.17 1258.89 953.546 1256.44 953.54Z" fill="#74797A"/>
<path d="M1305.33 875.699V952.487H1299.79V875.699H1305.33Z" fill="#74797A"/>
<path d="M1340.69 875.699V952.487H1335.15V875.699H1340.69Z" fill="#74797A"/>
<path d="M1387.74 953.539C1384.92 953.564 1382.12 953.067 1379.49 952.075C1377 951.102 1374.78 949.563 1373 947.578C1371.11 945.34 1369.7 942.735 1368.87 939.926C1367.81 936.382 1367.3 932.695 1367.37 928.995V922.808C1367.28 918.89 1367.83 914.983 1368.98 911.237C1369.88 908.341 1371.35 905.655 1373.3 903.338C1374.99 901.38 1377.11 899.841 1379.49 898.841C1384.39 896.928 1389.83 896.928 1394.72 898.841C1396.96 899.798 1398.92 901.319 1400.39 903.255C1402.04 905.466 1403.21 907.994 1403.84 910.68C1404.66 914.138 1405.05 917.686 1404.99 921.24V925.901H1370.6V920.642H1399.34V919.301C1399.36 916.228 1398.86 913.174 1397.86 910.268C1397.09 907.994 1395.66 906.008 1393.73 904.575C1391.7 903.162 1389.26 902.439 1386.79 902.512C1384.85 902.492 1382.92 902.878 1381.14 903.647C1379.38 904.42 1377.84 905.626 1376.67 907.153C1375.31 909.005 1374.35 911.109 1373.82 913.341C1373.13 916.391 1372.8 919.514 1372.85 922.643V928.83C1372.8 931.72 1373.16 934.603 1373.92 937.39C1374.53 939.573 1375.57 941.609 1377 943.371C1378.28 944.943 1379.93 946.175 1381.8 946.96C1383.76 947.762 1385.86 948.162 1387.98 948.135C1390.5 948.186 1393 947.701 1395.32 946.712C1397.49 945.712 1399.41 944.231 1400.93 942.381L1403.84 946.073C1402.8 947.447 1401.58 948.669 1400.21 949.703C1398.63 950.891 1396.86 951.799 1394.97 952.384C1392.63 953.142 1390.19 953.532 1387.74 953.539Z" fill="#74797A"/>
<path d="M1436.04 909.938V952.488H1430.49V898.388H1435.85L1436.04 909.938ZM1434.8 922.086L1432.35 920.643C1432.45 917.587 1432.98 914.561 1433.91 911.65C1434.77 908.99 1436.04 906.483 1437.69 904.225C1439.19 902.164 1441.12 900.448 1443.34 899.192C1445.54 897.987 1448.02 897.369 1450.53 897.398C1452.64 897.354 1454.74 897.725 1456.71 898.491C1458.49 899.236 1460.05 900.421 1461.25 901.936C1462.63 903.774 1463.62 905.882 1464.14 908.123C1464.85 911.115 1465.18 914.185 1465.13 917.26V952.55H1459.56V917.198C1459.68 914.246 1459.26 911.297 1458.32 908.494C1457.67 906.636 1456.41 905.056 1454.74 904.019C1453.03 903.096 1451.11 902.64 1449.17 902.699C1447 902.661 1444.87 903.311 1443.09 904.555C1441.3 905.833 1439.79 907.461 1438.66 909.34C1437.44 911.313 1436.5 913.443 1435.87 915.672C1435.24 917.754 1434.88 919.911 1434.82 922.086H1434.8Z" fill="#74797A"/>
<path d="M1510.58 948.303C1512.57 948.313 1514.55 947.92 1516.39 947.148C1518.25 946.349 1519.82 944.986 1520.86 943.25C1522.19 940.952 1522.9 938.352 1522.93 935.701H1528.22C1528.22 939.142 1527.31 942.522 1525.59 945.498C1524.05 948.033 1521.85 950.106 1519.24 951.5C1516.58 952.882 1513.63 953.59 1510.64 953.562C1507.73 953.621 1504.84 953.08 1502.15 951.974C1499.71 950.939 1497.58 949.29 1495.96 947.189C1494.22 944.85 1492.96 942.185 1492.27 939.351C1491.38 935.813 1490.96 932.172 1491.01 928.523V922.336C1490.95 918.693 1491.38 915.059 1492.27 911.528C1492.97 908.709 1494.22 906.058 1495.96 903.732C1497.58 901.643 1499.71 900.003 1502.15 898.967C1504.84 897.861 1507.73 897.321 1510.64 897.379C1513.71 897.323 1516.75 898.032 1519.48 899.442C1522.12 900.9 1524.27 903.102 1525.67 905.774C1527.34 909.143 1528.21 912.859 1528.18 916.623H1522.88C1522.89 913.8 1522.24 911.013 1521.01 908.476C1520.04 906.566 1518.52 904.997 1516.64 903.979C1514.77 903.03 1512.69 902.549 1510.6 902.577C1508.35 902.507 1506.11 902.958 1504.06 903.897C1502.3 904.766 1500.81 906.1 1499.75 907.754C1498.57 909.647 1497.75 911.746 1497.34 913.941C1496.82 916.701 1496.57 919.506 1496.6 922.315V928.503C1496.57 931.325 1496.82 934.144 1497.34 936.918C1497.76 939.114 1498.59 941.212 1499.77 943.105C1500.83 944.766 1502.33 946.1 1504.1 946.962C1506.13 947.899 1508.35 948.358 1510.58 948.303Z" fill="#74797A"/>
<path d="M1571.52 953.538C1568.7 953.563 1565.91 953.066 1563.27 952.074C1560.79 951.101 1558.56 949.562 1556.78 947.577C1554.88 945.344 1553.48 942.737 1552.65 939.925C1551.58 936.383 1551.07 932.694 1551.15 928.994V922.807C1551.07 918.889 1551.61 914.982 1552.76 911.236C1553.64 908.336 1555.11 905.648 1557.07 903.337C1558.76 901.385 1560.87 899.847 1563.25 898.84C1568.14 896.928 1573.57 896.928 1578.46 898.84C1580.71 899.797 1582.67 901.317 1584.15 903.254C1585.8 905.465 1586.97 907.993 1587.6 910.679C1588.42 914.137 1588.81 917.685 1588.75 921.239V925.9H1554.39V920.641H1583.1V919.3C1583.12 916.229 1582.62 913.176 1581.64 910.267C1580.88 907.993 1579.44 906.007 1577.52 904.574C1575.48 903.161 1573.05 902.438 1570.57 902.511C1568.63 902.489 1566.7 902.875 1564.92 903.646C1563.16 904.419 1561.62 905.625 1560.45 907.152C1559.09 909 1558.12 911.105 1557.6 913.34C1556.9 916.389 1556.57 919.513 1556.63 922.642V928.829C1556.58 931.719 1556.94 934.602 1557.7 937.389C1558.31 939.572 1559.35 941.608 1560.78 943.37C1562.06 944.942 1563.71 946.175 1565.58 946.959C1567.54 947.763 1569.64 948.163 1571.76 948.134C1574.28 948.185 1576.77 947.7 1579.08 946.711C1581.27 945.717 1583.19 944.235 1584.71 942.38L1587.62 946.072C1586.58 947.441 1585.36 948.663 1583.99 949.702C1582.41 950.894 1580.63 951.802 1578.73 952.383C1576.4 953.141 1573.97 953.531 1571.52 953.538Z" fill="#74797A"/>
</svg>
